<?xml version="1.0" standalone="no"?>
<!DOCTYPE svg PUBLIC "-//W3C//DTD SVG 20010904//EN"
 "http://www.w3.org/TR/2001/REC-SVG-20010904/DTD/svg10.dtd">
<svg version="1.0" xmlns="http://www.w3.org/2000/svg"
 width="222.000000pt" height="140.000000pt" viewBox="0 0 222.000000 140.000000"
 preserveAspectRatio="xMidYMid meet">

<g transform="translate(0.000000,140.000000) scale(0.100000,-0.100000)"
fill="#000000" stroke="none">
<path d="M1733 1393 c-47 -9 -46 -21 17 -219 33 -104 60 -193 60 -198 0 -5
-27 31 -59 81 -100 151 -217 236 -300 218 -96 -21 -211 -188 -211 -306 0 -35
-3 -40 -17 -35 -16 6 -16 6 0 -12 9 -10 17 -24 17 -31 0 -7 -26 -39 -57 -72
l-57 -60 37 -34 c42 -39 43 -42 20 -67 -15 -17 -15 -19 0 -36 13 -14 14 -21 5
-30 -9 -9 -7 -16 7 -32 14 -15 18 -33 16 -65 -2 -40 0 -45 28 -59 42 -22 48
-21 121 24 78 48 106 50 184 10 33 -17 76 -33 95 -36 59 -9 190 13 237 41 77
45 80 40 124 -168 34 -160 41 -171 119 -182 50 -7 91 5 91 26 0 12 -119 378
-128 393 -3 5 5 6 19 2 72 -22 100 -28 106 -23 3 4 0 26 -6 50 -10 36 -19 46
-46 56 -39 14 -95 73 -124 130 -35 68 -70 185 -106 351 -35 166 -61 233 -98
261 -26 19 -63 27 -94 22z m-149 -277 c49 -21 92 -62 151 -146 68 -97 92 -151
109 -252 17 -97 8 -138 -36 -170 -36 -25 -158 -40 -158 -19 0 6 6 11 13 11 6
0 21 7 31 15 18 14 18 15 -10 26 -20 8 -37 8 -57 1 -26 -10 -27 -9 -21 11 6
22 6 22 -10 2 -15 -20 -15 -19 -16 7 0 16 -12 41 -28 59 l-28 31 1 -61 c1 -33
-1 -61 -4 -61 -9 0 -78 111 -90 143 -17 44 -14 48 27 32 20 -7 74 -24 120 -36
45 -12 99 -33 120 -46 l37 -25 -24 26 c-22 23 -55 46 -148 103 -27 16 -20 47
8 40 24 -6 36 13 18 27 -8 6 -14 20 -13 31 0 11 -2 29 -6 40 -7 19 -8 19 -18
-5 -6 -14 -13 -33 -16 -42 -4 -14 -15 -17 -48 -15 -40 2 -45 6 -82 59 -22 32
-37 60 -35 63 3 2 23 -5 46 -16 47 -23 82 -18 110 14 18 22 18 22 -3 5 -52
-44 -165 5 -150 65 7 30 55 89 56 68 0 -11 3 -11 16 0 48 39 73 42 138 15z"/>
<path d="M190 1300 c-66 -22 -110 -67 -110 -110 0 -43 24 -48 58 -13 19 21 41
32 73 37 43 6 138 0 149 -11 5 -5 -24 -149 -45 -220 -13 -45 -19 -52 -48 -58
-58 -13 -148 -68 -193 -119 -128 -145 -71 -336 92 -311 93 14 163 99 210 255
40 134 35 126 100 133 32 3 60 5 61 3 2 -1 -5 -52 -14 -113 -16 -105 -16 -114
1 -157 21 -54 47 -71 127 -81 49 -6 58 -11 74 -38 10 -18 21 -34 25 -37 3 -3
14 -22 23 -42 31 -67 86 -115 159 -139 83 -28 93 -22 103 64 7 55 7 77 1 152
-5 56 -21 97 -44 116 l-27 20 -9 -20 c-10 -24 -34 -27 -61 -8 -25 19 -13 33
45 52 50 17 61 33 36 54 -19 16 -45 4 -88 -41 -20 -21 -41 -38 -46 -38 -17 0
-73 51 -103 94 -24 32 -29 49 -29 95 0 75 14 122 46 147 l26 21 -21 34 c-12
19 -21 46 -21 62 l0 27 84 0 c85 0 85 0 110 33 33 43 36 117 7 146 -36 36
-202 41 -240 7 -27 -24 -68 -111 -105 -222 l-33 -99 -63 -3 -63 -3 6 28 c4 15
18 81 32 146 14 64 25 125 25 136 0 40 -212 55 -310 21z m80 -485 c0 -31 -42
-141 -66 -172 -49 -64 -110 -52 -101 19 7 49 47 102 105 139 52 33 62 35 62
14z"/>
<path d="M883 940 c-37 -15 -26 -27 27 -29 39 -1 50 2 50 14 0 8 -6 15 -14 15
-8 0 -20 2 -28 4 -7 3 -23 1 -35 -4z"/>
</g>
</svg>
